<svg width="234" height="329" viewBox="0 0 234 329" fill="none" xmlns="http://www.w3.org/2000/svg">
<path fill-rule="evenodd" clip-rule="evenodd" d="M72.375 286.248C82.964 279.506 88.5134 265.71 85.5421 253.513C91.422 259.177 91.8139 268.805 88.6721 276.34C85.5304 283.875 79.5564 289.808 73.7303 295.526" fill="#008B44"/>
<path fill-rule="evenodd" clip-rule="evenodd" d="M75.6595 286.917C83.3399 282.419 88.3645 274.456 91.8583 266.269C95.3525 258.083 97.6193 249.394 101.449 241.359C105.278 233.324 111.034 225.721 119.212 222.208C112.912 228.487 112.14 238.2 110.156 246.871C105.596 266.794 92.4533 284.598 74.7578 294.824" fill="#00A650"/>
<path fill-rule="evenodd" clip-rule="evenodd" d="M76.6505 289.625C79.4561 286.801 82.4167 284.132 85.5158 281.634C93.1672 275.467 101.772 270.233 107.823 262.489C112.218 256.866 115.045 250.182 119.08 244.295C126.421 233.584 137.85 225.752 150.488 222.77C146.077 224.907 142.819 228.895 140.416 233.167C138.014 237.438 136.334 242.074 134.162 246.467C128.425 258.072 119.333 267.784 109.022 275.611C98.7119 283.439 87.1731 289.489 75.4844 295.051" fill="#008B44"/>
<path fill-rule="evenodd" clip-rule="evenodd" d="M77.1184 292.394C99.4396 274.125 131.863 267.343 160.362 274.982C146.591 281.588 130.183 282.775 115.041 284.774C99.8979 286.773 84.1715 289.988 72.3438 299.652" fill="#00A650"/>
<path fill-rule="evenodd" clip-rule="evenodd" d="M80.3877 295.916C95.8623 287.929 112.335 294.169 110.588 309.894C124.565 291.021 99.1066 278.943 78.6406 292.172" fill="#008B44"/>
<path fill-rule="evenodd" clip-rule="evenodd" d="M64.6443 285.228L42.875 309.893L57.4882 327.864L88.2015 311.89L64.6443 285.228Z" fill="#523B5D"/>
<path fill-rule="evenodd" clip-rule="evenodd" d="M61.168 289.168L82.5445 314.832L88.2025 311.89L64.6454 285.228L61.168 289.168Z" fill="#3F2C48"/>
<path fill-rule="evenodd" clip-rule="evenodd" d="M61.4219 285.228L68.4104 277.445L95.8649 311.391L88.2032 317.381L61.4219 285.228Z" fill="#523B5D"/>
<path fill-rule="evenodd" clip-rule="evenodd" d="M42.875 309.893L57.4882 327.864C57.4882 327.864 57.2752 314.261 42.875 309.893Z" fill="#3F2C48"/>
<path fill-rule="evenodd" clip-rule="evenodd" d="M99.5056 300.107C99.5056 298.62 98.2992 297.413 96.8114 297.413C95.3231 297.413 94.1172 298.62 94.1172 300.107C94.1172 301.595 95.3231 302.802 96.8114 302.802C98.2992 302.802 99.5056 301.595 99.5056 300.107Z" fill="#3A3B39"/>
<path fill-rule="evenodd" clip-rule="evenodd" d="M90.9212 296.885C90.9212 296.135 90.3126 295.526 89.5622 295.526C88.8117 295.526 88.2031 296.135 88.2031 296.885C88.2031 297.635 88.8117 298.244 89.5622 298.244C90.3126 298.244 90.9212 297.635 90.9212 296.885Z" fill="#3A3B39"/>
<path fill-rule="evenodd" clip-rule="evenodd" d="M104.35 309.394C104.35 308.429 103.567 307.647 102.603 307.647C101.638 307.647 100.855 308.429 100.855 309.394C100.855 310.359 101.638 311.141 102.603 311.141C103.567 311.141 104.35 310.359 104.35 309.394Z" fill="#3A3B39"/>
<path fill-rule="evenodd" clip-rule="evenodd" d="M195.094 25.2376L198.127 15.9912L200.558 17.2225L196.732 26.4464L195.094 25.2376Z" fill="#F57100"/>
<path fill-rule="evenodd" clip-rule="evenodd" d="M192.699 24.3497C192.699 23.0552 193.761 8.6084 193.928 6.34386C193.939 6.1903 194.091 6.09104 194.238 6.13833L196.353 6.81952C196.459 6.85369 196.527 6.95622 196.517 7.06718L194.939 24.3497H192.699Z" fill="#F57100"/>
<path fill-rule="evenodd" clip-rule="evenodd" d="M190.682 23.6846L187.924 16.03L184.207 14.3661V12.2031L189.456 13.7003L191.875 23.6846H190.682Z" fill="#F57100"/>
<path fill-rule="evenodd" clip-rule="evenodd" d="M203.16 26.7714L209.554 13.3677L212.679 14.7717C212.679 14.7717 205.768 21.8636 204.786 27.969L203.16 26.7714Z" fill="#F57100"/>
<path fill-rule="evenodd" clip-rule="evenodd" d="M202.324 25.2376L205.357 15.9912L207.789 17.2225L203.963 26.4464L202.324 25.2376Z" fill="#FB9300"/>
<path fill-rule="evenodd" clip-rule="evenodd" d="M193.77 24.3498L196.203 12.2026H198.137L195.953 25.0156L193.77 24.3498Z" fill="#FB9300"/>
<path fill-rule="evenodd" clip-rule="evenodd" d="M190.684 23.6844V10.8466C190.684 10.6767 190.821 10.5386 190.992 10.5386H192.76C192.931 10.5386 193.068 10.6767 193.068 10.8466V24.3501L190.684 23.6844Z" fill="#FB9300"/>
<path fill-rule="evenodd" clip-rule="evenodd" d="M202.02 23.019L205.847 24.5167C205.847 24.5167 203.85 34.7734 200.023 36.3844C200.023 36.3844 197.86 31.3389 202.02 23.019Z" fill="#7DB1A1"/>
<path fill-rule="evenodd" clip-rule="evenodd" d="M189.458 23.0187C190.206 22.8525 202.02 23.0187 202.02 23.0187C202.02 23.0187 199.524 29.9476 200.024 36.3841C200.024 36.3841 194.117 36.0521 188.168 34.1944L189.458 23.0187Z" fill="#B3E0D0"/>
<path fill-rule="evenodd" clip-rule="evenodd" d="M201.113 6.0459L203.383 7.04451C203.383 7.04451 204.003 14.1996 202.772 17.4445H201.113V6.0459Z" fill="#FB9300"/>
<path fill-rule="evenodd" clip-rule="evenodd" d="M185.91 2.70358L188.269 8.8385C188.364 9.08475 188.614 9.18822 188.819 9.06509L189.798 8.47707C189.976 8.37079 190.06 8.12875 189.998 7.90683L188.096 1.16657C188.022 0.902051 187.752 0.795776 187.557 0.954018L186.033 2.18718C185.891 2.30188 185.84 2.51958 185.91 2.70358Z" fill="#FB9300"/>
<path fill-rule="evenodd" clip-rule="evenodd" d="M206.18 10.5388C206.18 10.5388 208.01 5.62999 208.509 2.55176H211.504L207.92 11.1212L206.18 10.5388Z" fill="#FB9300"/>
<path fill-rule="evenodd" clip-rule="evenodd" d="M232.137 100.478L229.807 104.389L193.451 125.182L150.938 114.206V104.075L232.137 100.478Z" fill="#CC395D"/>
<path fill-rule="evenodd" clip-rule="evenodd" d="M150.519 111.211L192.699 122.692L232.134 100.478L204.929 94.2383L140.535 105.969L150.519 111.211Z" fill="#E73A5E"/>
<path fill-rule="evenodd" clip-rule="evenodd" d="M142.034 38.1331C141.565 37.5156 140.985 36.9622 140.278 36.6462C139.57 36.3302 138.721 36.2759 138.027 36.6209C137.008 37.1284 136.538 38.399 136.687 39.5283C136.836 40.6575 137.487 41.6589 138.225 42.5264C139.194 43.6664 140.344 44.6524 141.618 45.4361C141.907 45.614 142.225 45.7872 142.563 45.7643C142.686 45.7559 142.808 45.7095 142.911 45.6393C143.971 43.2212 143.63 40.2385 142.034 38.1331Z" fill="#3F2C48"/>
<path fill-rule="evenodd" clip-rule="evenodd" d="M142.838 45.8082L142.92 45.6326C142.917 45.635 142.913 45.6364 142.91 45.6387C142.885 45.6949 142.864 45.7525 142.838 45.8082Z" fill="#3F2C48"/>
<path fill-rule="evenodd" clip-rule="evenodd" d="M142.921 45.633C143.098 45.5084 143.215 45.3099 143.17 45.1021L142.921 45.633Z" fill="#3F2C48"/>
<path fill-rule="evenodd" clip-rule="evenodd" d="M143.439 105.441C143.439 105.441 183.966 115.704 196.445 109.963C208.925 104.222 224.15 90.4942 224.15 90.4942C224.15 90.4942 195.184 95.7358 163.618 84.5039C163.618 84.5039 160.754 94.7377 137.293 103.224L143.439 105.441Z" fill="#F9B6A8"/>
<path fill-rule="evenodd" clip-rule="evenodd" d="M177.73 111.389C177.73 111.389 185.712 110.712 190.953 105.221L196.444 109.963C196.444 109.963 191.036 113.374 177.73 111.389Z" fill="#CC395D"/>
<path fill-rule="evenodd" clip-rule="evenodd" d="M138.791 56.2988C138.791 55.7763 139.664 55.3386 140.845 55.2131C140.971 54.6822 141.037 54.3301 141.037 54.3301L142.452 53.4701C142.452 53.4701 141.37 51.6396 143.034 47.2298C144.698 42.8206 140.705 40.8234 140.705 40.8234L132.385 39.0762L117.465 62.3724L132.136 65.6173L135.131 59.8766C135.131 59.8766 136.046 60.0428 137.959 60.2923C138.94 60.4201 139.723 58.8517 140.254 57.2918C139.384 57.1031 138.791 56.7295 138.791 56.2988Z" fill="#F9B6A8"/>
<path fill-rule="evenodd" clip-rule="evenodd" d="M26.9764 151.895C26.9764 151.895 19.3377 155.972 42.8742 181.265C66.4112 206.558 103.1 209.304 103.1 209.304C73.7396 184.708 37.1736 150.247 26.9764 151.895Z" fill="#0080A3"/>
<path fill-rule="evenodd" clip-rule="evenodd" d="M11.1677 145.656H0.285156L7.84011 150.648C8.20808 156.912 8.85459 163.698 9.74734 170.522C12.2702 169.306 14.9784 168.604 17.7653 167.993C13.8441 156.155 11.1677 145.656 11.1677 145.656Z" fill="#E73A5E"/>
<path fill-rule="evenodd" clip-rule="evenodd" d="M42.5716 173.695L28.8044 194.244C24.8157 187.744 20.8941 177.442 17.764 167.993C14.9776 168.604 12.2694 169.306 9.74609 170.521C12.8846 194.515 19.0716 218.978 26.9739 222.865C34.1089 226.375 53.6564 205.383 64.641 192.601C59.5106 185.306 51.4215 179.431 42.5716 173.695Z" fill="#F9B6A8"/>
<path fill-rule="evenodd" clip-rule="evenodd" d="M51.1034 160.965L42.5742 173.695C49.2837 181.27 56.3743 187.189 64.6441 192.602C65.0247 192.158 72.4013 183.262 72.4013 183.262L51.1034 160.965Z" fill="#CC395D"/>
<path fill-rule="evenodd" clip-rule="evenodd" d="M32.4648 311.058L42.1157 320.376L38.7876 310.725L53.2787 291.02C50.5601 289.06 47.7943 287.164 45.058 285.228L32.4648 311.058Z" fill="#E73A5E"/>
<path fill-rule="evenodd" clip-rule="evenodd" d="M65.078 244.165L45.0586 285.228C47.7949 287.164 50.5607 289.061 53.2793 291.02L75.0804 261.376C79.0035 256.041 82.4696 250.384 85.4414 244.467L102.923 209.654C93.2024 206.005 83.4289 201.588 73.2986 198.575L65.078 244.165Z" fill="#F9B6A8"/>
<path fill-rule="evenodd" clip-rule="evenodd" d="M76.058 183.263L73.2969 198.575C82.7633 203.402 92.6384 207.542 102.921 209.654L103.097 209.304L76.058 183.263Z" fill="#CC395D"/>
<path fill-rule="evenodd" clip-rule="evenodd" d="M26.9766 151.896C26.9766 151.896 49.9387 136.67 60.4215 120.446C70.9037 104.222 95.6626 64.7493 109.84 63.2877C124.016 61.826 142.785 63.7867 150.023 85.0029C157.261 106.219 161.504 130.68 161.504 130.68L187.461 121.694L189.458 127.685C189.458 127.685 155.264 154.891 147.278 134.174C139.291 113.457 135.547 105.22 135.547 105.22C135.547 105.22 136.296 115.953 127.81 117.95C127.81 117.95 114.332 182.846 103.101 209.304C59.6724 192.331 38.9569 156.888 26.9766 151.896Z" fill="#00AEC8"/>
<path fill-rule="evenodd" clip-rule="evenodd" d="M138.579 34.8672C134.034 32.4215 127.903 33.4112 124.36 37.1631C121.485 40.2067 120.176 44.7915 116.519 46.829C113.615 48.4475 110.053 47.9788 106.754 48.3927C101.063 49.1067 95.7071 52.9166 93.7395 58.3053C91.7714 63.6935 93.6734 70.4136 98.508 73.5007C103.343 76.5883 110.668 75.1773 113.565 70.2264C114.619 68.4262 115.12 66.2736 116.552 64.7572C119.038 62.1256 123.235 62.3887 126.611 61.0825C130.863 59.4378 133.87 55.6625 133.625 51.1104C132.811 50.5013 131.966 49.8539 131.541 48.9306C131.116 48.0069 131.283 46.7265 132.171 46.2312C133.487 45.3168 135.171 48.499 135.171 48.499C135.171 48.499 136.792 45.3683 138.077 44.3631C139.588 43.1805 141.45 42.0794 141.872 40.2077C142.367 38.0133 140.559 35.9333 138.579 34.8672Z" fill="#523B5D"/>
<path fill-rule="evenodd" clip-rule="evenodd" d="M187.461 121.694C187.461 121.694 192.453 114.705 192.952 115.08C193.451 115.455 191.829 120.571 191.829 120.571L200.689 117.202C200.689 117.202 200.938 120.197 198.817 121.694C196.696 123.192 189.458 127.685 189.458 127.685L187.461 121.694Z" fill="#F9B6A8"/>
<path fill-rule="evenodd" clip-rule="evenodd" d="M28.8047 194.245L31.5644 200.015L32.4651 188.781L28.8047 194.245Z" fill="#CC395D"/>
<path fill-rule="evenodd" clip-rule="evenodd" d="M140.536 48.6856C140.536 48.2029 140.145 47.812 139.663 47.812C139.18 47.812 138.789 48.2029 138.789 48.6856C138.789 49.1683 139.18 49.5592 139.663 49.5592C140.145 49.5592 140.536 49.1683 140.536 48.6856Z" fill="#3A3B39"/>
<path fill-rule="evenodd" clip-rule="evenodd" d="M141.067 47.3916C140.878 47.3916 140.721 47.2404 140.716 47.0498C140.706 46.6575 140.519 46.3724 140.215 46.2872C139.887 46.1959 139.525 46.3663 139.295 46.723C139.19 46.8864 138.972 46.9332 138.809 46.8279C138.646 46.723 138.6 46.5058 138.704 46.3429C139.105 45.7212 139.773 45.4342 140.404 45.6111C141.011 45.7811 141.4 46.3251 141.418 47.0311C141.423 47.2254 141.27 47.3864 141.076 47.3916C141.074 47.3916 141.07 47.3916 141.067 47.3916Z" fill="#3A3B39"/>
<path fill-rule="evenodd" clip-rule="evenodd" d="M134.481 50.1156C134.394 50.1156 134.312 50.0679 134.271 49.986C133.842 49.125 133.179 48.3698 132.352 47.8024C132.245 47.7294 132.218 47.5838 132.291 47.477C132.364 47.3703 132.511 47.3436 132.616 47.4166C133.509 48.0285 134.226 48.845 134.69 49.7772C134.747 49.8928 134.7 50.0337 134.584 50.0913C134.551 50.1077 134.516 50.1156 134.481 50.1156Z" fill="#CC395D"/>
<path fill-rule="evenodd" clip-rule="evenodd" d="M135.129 59.8763L132.484 59.4189L134.481 61.1203L135.129 59.8763Z" fill="#CC395D"/>
<path fill-rule="evenodd" clip-rule="evenodd" d="M134.481 51.7442C134.481 51.1927 134.033 50.7461 133.482 50.7461C132.931 50.7461 132.484 51.1927 132.484 51.7442C132.484 52.2957 132.931 52.7424 133.482 52.7424C134.033 52.7424 134.481 52.2957 134.481 51.7442Z" fill="#FFFFFE"/>
<path fill-rule="evenodd" clip-rule="evenodd" d="M161.504 130.68L162.252 135.006L163.619 129.948L161.504 130.68Z" fill="#0080A3"/>
<path fill-rule="evenodd" clip-rule="evenodd" d="M156.526 26.9258L157.289 27.5705L151.701 34.1871L150.938 33.5424L156.526 26.9258Z" fill="#B3E0D0"/>
<path fill-rule="evenodd" clip-rule="evenodd" d="M163.323 33.7178L163.762 34.6185L154.233 39.2689L153.793 38.3686L163.323 33.7178Z" fill="#B3E0D0"/>
<path fill-rule="evenodd" clip-rule="evenodd" d="M162.746 44.5923L162.782 45.5932L155.794 45.8456L155.758 44.8451L162.746 44.5923Z" fill="#B3E0D0"/>
<path fill-rule="evenodd" clip-rule="evenodd" d="M193.218 59.3862V80.9292L182.471 82.8023L176.773 64.2042L193.218 59.3862Z" fill="#B3E0D0"/>
<path fill-rule="evenodd" clip-rule="evenodd" d="M177.609 65.0019C183.261 65.1335 188.477 63.3179 193.219 59.3862C193.219 59.3862 183.541 57.9733 177.609 65.0019Z" fill="#3A3B39"/>
<path fill-rule="evenodd" clip-rule="evenodd" d="M176.087 64.8108L174.805 60.4788L184.283 52.5176L187.756 54.5078L176.087 64.8108Z" fill="#B3E0D0"/>
<path fill-rule="evenodd" clip-rule="evenodd" d="M174.805 67.7378L190.14 54.4582L187.756 52.5176L174.805 65.0018V67.7378Z" fill="#7DB1A1"/>
<path fill-rule="evenodd" clip-rule="evenodd" d="M178.117 69.3771C183.425 69.3382 188.654 67.738 193.454 65.0488L193.61 77.4774L181.067 79.6801L178.117 69.3771Z" fill="#523B5D"/>
<path fill-rule="evenodd" clip-rule="evenodd" d="M231.732 57.7437C231.477 57.6534 231.189 57.6229 230.983 57.4483C230.48 57.0232 230.842 56.2255 230.885 55.5681C230.969 54.2516 229.614 53.3176 228.362 52.9014C225.976 52.1088 223.321 52.1561 220.964 53.033C220.311 53.2755 219.659 53.5971 219.222 54.1388C218.784 54.6805 218.616 55.49 218.981 56.0831C219.227 56.4839 219.749 56.6824 220.195 56.6047C220.559 56.9872 220.6 57.6674 220.56 58.2363C220.51 58.9334 220.534 59.7957 221.154 60.1174C222.319 60.7213 223.481 58.5349 224.713 58.9853C225.234 59.1763 225.473 59.7587 225.747 60.2424C226.021 60.7255 226.549 61.2087 227.066 61.006C227.635 60.7822 227.682 59.9179 228.219 59.6244C228.606 59.4128 229.095 59.5874 229.449 59.8505C229.802 60.1136 230.095 60.4633 230.488 60.6614C231.261 61.049 232.324 60.66 232.663 59.8641C233.002 59.0687 232.547 58.0326 231.732 57.7437Z" fill="#00A650"/>
<path fill-rule="evenodd" clip-rule="evenodd" d="M217 51.3929C220.569 50.4603 223.934 51.5081 224.516 53.7338C225.098 55.9595 222.675 58.5199 219.106 59.4525C215.537 60.3851 212.172 59.3373 211.59 57.1117C211.009 54.886 213.431 52.3255 217 51.3929Z" fill="#585755"/>
<path fill-rule="evenodd" clip-rule="evenodd" d="M218.745 58.0665C215.555 58.8999 212.535 58.1489 211.512 56.3919C211.508 56.6339 211.529 56.875 211.591 57.1119C212.173 59.3376 215.537 60.3854 219.107 59.4528C222.676 58.5197 225.098 55.9597 224.516 53.7341C224.455 53.4972 224.355 53.2767 224.233 53.0674C224.2 55.1002 221.934 57.2332 218.745 58.0665Z" fill="#3A3B39"/>
<path fill-rule="evenodd" clip-rule="evenodd" d="M211.685 61.1201C211.685 61.1201 209.615 68.6123 219.483 69.7771C229.351 70.9419 230.306 64.2859 230.306 64.2859L211.685 61.1201Z" fill="#FB9300"/>
<path fill-rule="evenodd" clip-rule="evenodd" d="M211.684 61.1202C211.684 61.1202 218.209 65.617 230.305 64.2859C230.305 64.2859 218.209 60.6169 211.684 61.1202Z" fill="#F57100"/>
<path fill-rule="evenodd" clip-rule="evenodd" d="M213.832 51.7442C213.832 51.7442 217.492 57.2976 232.135 56.299C234.295 47.6196 215.992 43.0647 213.832 51.7442Z" fill="#FB9300"/>
</svg>